<?xml version="1.0" encoding="UTF-8"?>
<svg width="24px" height="24px" viewBox="0 0 24 24" version="1.1" xmlns="http://www.w3.org/2000/svg" xmlns:xlink="http://www.w3.org/1999/xlink">
    <title>1.图标icon/1.基础图标/Video</title>
    <g id="1.图标icon/1.基础图标/Video" stroke="none" stroke-width="1" fill="none" fill-rule="evenodd">
        <rect id="矩形" x="0" y="0" width="24" height="24"></rect>
        <path d="M12,2 C17.5228475,2 22,6.4771525 22,12 C22,17.5228475 17.5228475,22 12,22 C6.4771525,22 2,17.5228475 2,12 C2,6.4771525 6.4771525,2 12,2 Z M12,3.5 C7.30557963,3.5 3.5,7.30557963 3.5,12 C3.5,16.6944204 7.30557963,20.5 12,20.5 C16.6944204,20.5 20.5,16.6944204 20.5,12 C20.5,7.30557963 16.6944204,3.5 12,3.5 Z M10.1907357,8.5 C10.2827092,8.5 10.3728317,8.52493963 10.4508251,8.57197467 L10.4508251,8.57197467 L15.469288,11.5984307 C15.6991175,11.7370326 15.7689851,12.0291662 15.6253417,12.2509293 C15.5858469,12.3119031 15.5324796,12.3633973 15.469288,12.4015059 L15.469288,12.4015059 L10.4508251,15.4279619 C10.2209956,15.5665639 9.91823606,15.4991484 9.77459265,15.2773853 C9.72584678,15.2021293 9.7,15.1151699 9.7,15.0264243 L9.7,15.0264243 L9.7,8.97351229 C9.7,8.71199867 9.91970984,8.5 10.1907357,8.5 Z" id="形状结合" fill="#4C4D4E"></path>
    </g>
</svg>