<?xml version="1.0" encoding="UTF-8"?>
<svg width="24px" height="24px" viewBox="0 0 24 24" version="1.1" xmlns="http://www.w3.org/2000/svg" xmlns:xlink="http://www.w3.org/1999/xlink">
    <title>1.图标icon/1.基础图标/Voice</title>
    <g id="1.图标icon/1.基础图标/Voice" stroke="none" stroke-width="1" fill="none" fill-rule="evenodd">
        <rect id="矩形" x="0" y="0" width="24" height="24"></rect>
        <path d="M12,2 C17.5228475,2 22,6.4771525 22,12 C22,17.5228475 17.5228475,22 12,22 C6.4771525,22 2,17.5228475 2,12 C2,6.4771525 6.4771525,2 12,2 Z M12,3.5 C7.30557963,3.5 3.5,7.30557963 3.5,12 C3.5,16.6944204 7.30557963,20.5 12,20.5 C16.6944204,20.5 20.5,16.6944204 20.5,12 C20.5,7.30557963 16.6944204,3.5 12,3.5 Z M13.3066857,6.69593125 C16.232917,9.62223305 16.232917,14.3709704 13.3039848,17.2999026 L13.3010288,17.302533 L12.2397733,16.2414705 L12.2433246,16.2379221 C14.5855194,13.8957273 14.58647,10.0988698 12.2461763,7.75549426 L13.3066857,6.69593125 Z M11.362142,8.6404749 C13.2144315,10.4937476 13.2144315,13.5012812 11.3594411,15.3562716 L11.3564852,15.3579893 L10.2952303,14.2978364 C10.2964146,14.2966557 10.2975981,14.295474 10.298781,14.2942911 C11.5670335,13.0260386 11.5679842,10.9703857 10.3016331,9.70095265 L11.362142,8.6404749 Z M9.38662435,10.6164838 L9.41489748,10.6442136 L9.41489748,10.6442136 C10.1866535,11.4159696 10.1958355,12.6615285 9.44244338,13.4445587 L8.00068392,12.0033009 L9.38662435,10.6164838 Z" id="形状结合" fill="#4C4D4E"></path>
    </g>
</svg>