<?xml version="1.0" encoding="UTF-8"?>
<svg width="24px" height="24px" viewBox="0 0 24 24" version="1.1" xmlns="http://www.w3.org/2000/svg" xmlns:xlink="http://www.w3.org/1999/xlink">
    <title>1.图标icon/1.基础图标/Pic</title>
    <g id="1.图标icon/1.基础图标/Pic" stroke="none" stroke-width="1" fill="none" fill-rule="evenodd">
        <rect id="矩形" x="0" y="0" width="24" height="24"></rect>
        <path d="M22,18.5195698 L21.999,18.519 L21.9931334,18.64446 C21.9204487,19.4051119 21.2796961,20 20.5,20 L3.5,20 C2.67800266,20 2.01043419,19.3388114 2.00012113,18.5192608 L2,18.5195698 L2,5.5 C2,4.67157288 2.67157288,4 3.5,4 L20.5,4 C21.3284271,4 22,4.67157288 22,5.5 L22,18.5195698 Z M8.997,11.052 L3.5,15.462 L3.5,18.5 L20.5,18.5 L20.5,15.884 L17.416,13.079 L14.3108949,15.7212615 L8.997,11.052 Z M20.5,5.5 L3.5,5.5 L3.5,13.54 L8.19924553,9.76963021 C8.66179904,9.39555658 9.40462562,9.41369875 9.85049542,9.80545525 L14.3269229,13.7385979 L16.6091025,11.7978692 C17.0713175,11.4048091 17.8067229,11.4127941 18.2554314,11.8154553 L20.5,13.856 L20.5,5.5 Z" id="形状结合" fill="#4C4D4E"></path>
    </g>
</svg>