<?xml version="1.0" encoding="UTF-8"?>
<svg width="24px" height="24px" viewBox="0 0 24 24" version="1.1" xmlns="http://www.w3.org/2000/svg" xmlns:xlink="http://www.w3.org/1999/xlink">
    <title>1.图标icon/1.基础图标/Artical</title>
    <g id="1.图标icon/1.基础图标/Artical" stroke="none" stroke-width="1" fill="none" fill-rule="evenodd">
        <rect id="矩形" x="0" y="0" width="24" height="24"></rect>
        <path d="M18.5,2 C19.3284271,2 20,2.67157288 20,3.5 L20,20.5 C20,21.3284271 19.3284271,22 18.5,22 L5.5,22 C4.67157288,22 4,21.3284271 4,20.5 L4,3.5 C4,2.67157288 4.67157288,2 5.5,2 L18.5,2 Z M18.5,3.5 L5.5,3.5 L5.5,20.5 L18.5,20.5 L18.5,3.5 Z M12,14 L12,15.5 L8,15.5 L8,14 L12,14 Z M16,10 L16,11.5 L8,11.5 L8,10 L16,10 Z M16,6 L16,7.5 L8,7.5 L8,6 L16,6 Z" id="形状结合" fill="#4C4D4E"></path>
    </g>
</svg>