<?xml version="1.0" encoding="UTF-8"?>
<svg width="24px" height="24px" viewBox="0 0 24 24" version="1.1" xmlns="http://www.w3.org/2000/svg" xmlns:xlink="http://www.w3.org/1999/xlink">
    <title>1.图标icon/1.基础图标/Channel</title>
    <g id="1.图标icon/1.基础图标/Channel" stroke="none" stroke-width="1" fill="none" fill-rule="evenodd">
        <path d="M20.7057545,5.28623704 C21.02719,6.09068164 21.067773,7.48079604 20.9120451,9.09520398 L20.8490687,9.6737198 L20.7706156,10.2673314 L20.6775118,10.8725082 L20.5705833,11.4857195 C20.5516557,11.5883948 20.5321865,11.6912577 20.5121929,11.7942348 L20.386076,12.4128779 L20.2481994,13.0307289 C20.2242858,13.133442 20.1999167,13.2359749 20.1751093,13.3382541 L20.0211416,13.948297 L19.8574792,14.5487212 C19.8294401,14.6477942 19.8010314,14.7463193 19.7722705,14.844223 L19.5956144,15.4235991 C19.5354115,15.6138465 19.473937,15.8010196 19.4113285,15.98453 L19.2202386,16.5234849 C18.4757417,18.5428466 17.5994804,20 16.8008215,20 C16.0705439,20 15.3386783,19.3923472 14.4860374,18.3001071 C14.101753,17.8078354 13.7006079,17.2210425 13.2881718,16.5587639 C12.958235,16.0289605 12.633918,15.4719241 12.3223511,14.9081834 L12.0002446,14.3147604 L11.9847115,14.3429683 C11.5816788,15.0975406 11.1517538,15.8523594 10.7118381,16.5587639 C10.2994019,17.2210425 9.89825684,17.8078354 9.51397239,18.3001071 C8.66133154,19.3923472 7.92946591,20 7.19918833,20 C6.4005294,20 5.52426809,18.5428466 4.77977053,16.5234868 L4.5886804,15.9845324 C4.52607179,15.8010222 4.46459717,15.6138493 4.40439419,15.4236022 L4.22773785,14.8442267 L4.05953736,14.2499367 C4.03225449,14.1498416 4.00535836,14.0492722 3.97886618,13.9483021 L3.82489815,13.3382601 C3.8000906,13.2359811 3.77572142,13.1334484 3.75180781,13.0307355 L3.61393068,12.4128857 L3.48781328,11.7942439 L3.37428158,11.1783408 C3.35645432,11.0761147 3.33918589,10.9741498 3.32249348,10.8725196 L3.22938901,10.2673446 L3.15093517,9.67373481 L3.08795792,9.09522103 C2.93222762,7.48081913 2.97280732,6.0907129 3.29423846,5.28627938 C3.75096269,4.1429806 4.62735797,3.74519965 5.65242985,4.15985787 C6.39564541,4.46050063 7.21589598,5.17935201 8.13251411,6.25620674 C8.67798726,6.89703558 9.24860107,7.65590986 9.83591988,8.50901343 C10.4862067,9.45358058 11.1233014,10.4636395 11.721407,11.4734694 L12.0003469,11.9487083 L12.2786028,11.4734694 C12.7570873,10.6656054 13.2605248,9.85759497 13.7757073,9.08308696 L14.16409,8.50901343 C14.7514088,7.65590986 15.3220226,6.89703558 15.8674957,6.25620674 C16.7841139,5.17935201 17.6043644,4.46050063 18.34758,4.15985787 C19.3726519,3.74519965 20.2490471,4.1429806 20.7057545,5.28623704 Z M5.19710387,5.59892275 L5.08993425,5.55039687 C4.89414135,5.47119546 4.85196765,5.45989348 4.75894766,5.66906756 L4.68715777,5.84285444 C4.54742718,6.1925529 4.48571113,6.78815059 4.4966808,7.54791715 L4.51194226,8.02282351 L4.54439251,8.53320734 C4.57169877,8.88441726 4.61029369,9.25666346 4.65983624,9.64471519 L4.74231816,10.2379931 C4.77252062,10.4392679 4.80541735,10.6438402 4.84096573,10.8510563 L4.95552317,11.4799816 C5.01673673,11.797756 5.08382057,12.1200075 5.15663081,12.4445295 L5.30984388,13.095947 L5.39209688,13.4227002 C5.80440906,15.0247938 6.30627633,16.4610415 6.80642513,17.4642503 C6.97467643,17.8017323 7.1366361,18.0772727 7.28174366,18.2807177 L7.374,18.404 L7.39167705,18.3914707 C7.56536311,18.256364 7.8413663,17.9865085 8.20656476,17.5345537 L8.3315831,17.3770927 C8.67267324,16.9401533 9.04323019,16.4006279 9.43855658,15.7658237 C9.76187007,15.2466558 10.0902566,14.6827432 10.4216656,14.0793164 L10.6862901,13.5912112 L10.947,13.117 L10.4307949,12.2378778 C9.82153337,11.2092126 9.20485877,10.237596 8.60040496,9.35960317 C8.02802047,8.52819226 7.48936511,7.81480435 6.99028148,7.22847451 C6.24868101,6.35723277 5.63972209,5.81943017 5.19710387,5.59892275 Z M19.3128351,5.8428121 L19.2410278,5.66898142 C19.1583739,5.48312492 19.1158681,5.47140448 18.9699308,5.52672029 L18.9100756,5.55039687 C18.4608598,5.73211195 17.8131289,6.2846293 17.0097284,7.22847451 C16.5819424,7.73104295 16.1250833,8.32696017 15.6471575,9.00419622 L15.4064761,9.34953512 L15.0246426,9.91384606 C14.6618444,10.4592646 14.296309,11.0350167 13.9340242,11.6301654 L13.5730447,12.2313745 L13.055,13.114 L13.6351878,14.182608 C13.9452115,14.7435565 14.2557495,15.274933 14.5614533,15.7658237 C14.9567796,16.4006279 15.3273366,16.9401533 15.6684267,17.3770927 L15.8069301,17.5512095 L16.0592738,17.8501796 C16.2556115,18.0728436 16.416666,18.2307982 16.5393509,18.3351807 L16.625,18.404 L16.6333081,18.3940522 C16.7712524,18.2198514 16.9281608,17.9715245 17.0934729,17.6592252 L17.1935842,17.4642502 C17.6520539,16.5446412 18.1119672,15.2611588 18.5030198,13.8196103 L18.6901634,13.0959421 L18.8433762,12.4445226 C18.9161863,12.1199996 18.9832699,11.797747 19.0444832,11.4799716 L19.1590401,10.8510443 C19.1945882,10.6438276 19.2274847,10.4392546 19.2576869,10.2379791 L19.3401681,9.6446991 C19.3897101,9.25664594 19.4283043,8.88439826 19.4556099,8.53318676 L19.4880591,8.02280048 L19.5033193,7.5478915 C19.5142869,6.78812042 19.4525685,6.19251737 19.3128351,5.8428121 Z" id="路径" fill="#4C4D4E"></path>
    </g>
</svg>